<?xml version="1.0" encoding="UTF-8"?>
<svg width="256" height="256" viewBox="0 0 256 256" xmlns="http://www.w3.org/2000/svg">
  <defs>
    <!-- 渐变定义 -->
    <radialGradient id="centerGradient" cx="50%" cy="50%" r="50%">
      <stop offset="0%" style="stop-color:#00D4FF;stop-opacity:1" />
      <stop offset="50%" style="stop-color:#5B9BD5;stop-opacity:0.8" />
      <stop offset="100%" style="stop-color:#1E3A8A;stop-opacity:0.6" />
    </radialGradient>
    
    <linearGradient id="dataFlowGradient" x1="0%" y1="0%" x2="100%" y2="0%">
      <stop offset="0%" style="stop-color:#FF6B6B;stop-opacity:0" />
      <stop offset="30%" style="stop-color:#4ECDC4;stop-opacity:0.8" />
      <stop offset="70%" style="stop-color:#45B7D1;stop-opacity:0.8" />
      <stop offset="100%" style="stop-color:#96CEB4;stop-opacity:0" />
    </linearGradient>
    
    <linearGradient id="pixelGradient" x1="0%" y1="0%" x2="100%" y2="100%">
      <stop offset="0%" style="stop-color:#667EEA;stop-opacity:1" />
      <stop offset="100%" style="stop-color:#764BA2;stop-opacity:1" />
    </linearGradient>
    
    <!-- 发光效果滤镜 -->
    <filter id="glow" x="-50%" y="-50%" width="200%" height="200%">
      <feGaussianBlur stdDeviation="3" result="coloredBlur"/>
      <feMerge> 
        <feMergeNode in="coloredBlur"/>
        <feMergeNode in="SourceGraphic"/>
      </feMerge>
    </filter>
    
    <!-- 模糊效果 -->
    <filter id="blur" x="-50%" y="-50%" width="200%" height="200%">
      <feGaussianBlur stdDeviation="1"/>
    </filter>
  </defs>
  
  <!-- 背景圆形 -->
  <circle cx="128" cy="128" r="115" fill="url(#centerGradient)" opacity="0.2"/>
  
  <!-- 像素网格基础结构 -->
  <g opacity="0.6">
    <!-- 主要像素块 -->
    <rect x="60" y="60" width="20" height="20" fill="#667EEA" opacity="0.8"/>
    <rect x="85" y="60" width="20" height="20" fill="#4ECDC4" opacity="0.9"/>
    <rect x="110" y="60" width="20" height="20" fill="#45B7D1" opacity="0.7"/>
    <rect x="135" y="60" width="20" height="20" fill="#96CEB4" opacity="0.8"/>
    <rect x="160" y="60" width="20" height="20" fill="#FFEAA7" opacity="0.6"/>
    
    <rect x="60" y="85" width="20" height="20" fill="#FF6B6B" opacity="0.7"/>
    <rect x="85" y="85" width="20" height="20" fill="#4ECDC4" opacity="0.8"/>
    <rect x="110" y="85" width="20" height="20" fill="#667EEA" opacity="0.9"/>
    <rect x="135" y="85" width="20" height="20" fill="#45B7D1" opacity="0.8"/>
    <rect x="160" y="85" width="20" height="20" fill="#96CEB4" opacity="0.7"/>
    
    <rect x="60" y="110" width="20" height="20" fill="#45B7D1" opacity="0.6"/>
    <rect x="85" y="110" width="20" height="20" fill="#667EEA" opacity="0.8"/>
    <rect x="110" y="110" width="20" height="20" fill="#FF6B6B" opacity="0.7"/>
    <rect x="135" y="110" width="20" height="20" fill="#4ECDC4" opacity="0.9"/>
    <rect x="160" y="110" width="20" height="20" fill="#FFEAA7" opacity="0.8"/>
  </g>
  
  <!-- 数据流动线条 -->
  <g filter="url(#glow)">
    <!-- 水平数据流 -->
    <path d="M20 80 Q60 75 100 80 T180 85 Q220 90 240 95" 
          stroke="url(#dataFlowGradient)" stroke-width="3" fill="none" opacity="0.8"/>
    <path d="M20 120 Q60 115 100 120 T180 125 Q220 130 240 135" 
          stroke="url(#dataFlowGradient)" stroke-width="2" fill="none" opacity="0.6"/>
    
    <!-- 垂直数据流 -->
    <path d="M80 20 Q75 60 80 100 T85 180 Q90 220 95 240" 
          stroke="url(#dataFlowGradient)" stroke-width="3" fill="none" opacity="0.8"/>
    <path d="M150 20 Q145 60 150 100 T155 180 Q160 220 165 240" 
          stroke="url(#dataFlowGradient)" stroke-width="2" fill="none" opacity="0.6"/>
  </g>
  
  <!-- 中央分析核心 -->
  <g transform="translate(128, 128)">
    <!-- 核心圆形 -->
    <circle cx="0" cy="0" r="25" fill="url(#pixelGradient)" filter="url(#glow)" opacity="0.9"/>
    <circle cx="0" cy="0" r="15" fill="#FFFFFF" opacity="0.8"/>
    
    <!-- 分析指示器 -->
    <g opacity="0.7">
      <rect x="-2" y="-8" width="4" height="16" fill="#667EEA"/>
      <rect x="-8" y="-2" width="16" height="4" fill="#4ECDC4"/>
    </g>
    
    <!-- 旋转的分析环 -->
    <g opacity="0.5">
      <circle cx="0" cy="0" r="35" stroke="#45B7D1" stroke-width="2" fill="none" 
              stroke-dasharray="10,5" transform="rotate(0)">
        <animateTransform attributeName="transform" type="rotate" 
                         values="0;360" dur="8s" repeatCount="indefinite"/>
      </circle>
      <circle cx="0" cy="0" r="45" stroke="#96CEB4" stroke-width="1" fill="none" 
              stroke-dasharray="5,10" transform="rotate(0)">
        <animateTransform attributeName="transform" type="rotate" 
                         values="360;0" dur="12s" repeatCount="indefinite"/>
      </circle>
    </g>
  </g>
  
  <!-- 数据点和连接线 -->
  <g opacity="0.6">
    <!-- 数据节点 -->
    <circle cx="50" cy="50" r="4" fill="#FF6B6B" filter="url(#glow)"/>
    <circle cx="200" cy="60" r="4" fill="#4ECDC4" filter="url(#glow)"/>
    <circle cx="40" cy="180" r="4" fill="#45B7D1" filter="url(#glow)"/>
    <circle cx="210" cy="190" r="4" fill="#96CEB4" filter="url(#glow)"/>
    
    <!-- 连接线 -->
    <path d="M50 50 Q90 80 128 103" stroke="#FF6B6B" stroke-width="1" fill="none" opacity="0.4"/>
    <path d="M200 60 Q160 80 128 103" stroke="#4ECDC4" stroke-width="1" fill="none" opacity="0.4"/>
    <path d="M40 180 Q80 150 128 153" stroke="#45B7D1" stroke-width="1" fill="none" opacity="0.4"/>
    <path d="M210 190 Q170 160 128 153" stroke="#96CEB4" stroke-width="1" fill="none" opacity="0.4"/>
  </g>
  
  <!-- 频谱分析图形 -->
  <g transform="translate(30, 180)" opacity="0.5">
    <rect x="0" y="0" width="4" height="30" fill="#667EEA"/>
    <rect x="8" y="5" width="4" height="25" fill="#4ECDC4"/>
    <rect x="16" y="10" width="4" height="20" fill="#45B7D1"/>
    <rect x="24" y="8" width="4" height="22" fill="#96CEB4"/>
    <rect x="32" y="15" width="4" height="15" fill="#FFEAA7"/>
    <rect x="40" y="12" width="4" height="18" fill="#FF6B6B"/>
  </g>
  
  <!-- 直方图分析 -->
  <g transform="translate(180, 180)" opacity="0.5">
    <rect x="0" y="0" width="3" height="25" fill="#667EEA"/>
    <rect x="5" y="3" width="3" height="22" fill="#4ECDC4"/>
    <rect x="10" y="8" width="3" height="17" fill="#45B7D1"/>
    <rect x="15" y="5" width="3" height="20" fill="#96CEB4"/>
    <rect x="20" y="12" width="3" height="13" fill="#FFEAA7"/>
    <rect x="25" y="10" width="3" height="15" fill="#FF6B6B"/>
    <rect x="30" y="15" width="3" height="10" fill="#DDA0DD"/>
  </g>
  
  <!-- 边缘装饰元素 -->
  <g opacity="0.3">
    <!-- 角落像素装饰 -->
    <rect x="10" y="10" width="6" height="6" fill="#667EEA"/>
    <rect x="20" y="10" width="6" height="6" fill="#4ECDC4"/>
    <rect x="240" y="10" width="6" height="6" fill="#45B7D1"/>
    <rect x="230" y="20" width="6" height="6" fill="#96CEB4"/>
    <rect x="10" y="240" width="6" height="6" fill="#FFEAA7"/>
    <rect x="20" y="230" width="6" height="6" fill="#FF6B6B"/>
    <rect x="240" y="240" width="6" height="6" fill="#DDA0DD"/>
    <rect x="230" y="230" width="6" height="6" fill="#98FB98"/>
  </g>
  
  <!-- 网格线 -->
  <g opacity="0.1" stroke="#45B7D1" stroke-width="0.5" fill="none">
    <line x1="0" y1="64" x2="256" y2="64"/>
    <line x1="0" y1="128" x2="256" y2="128"/>
    <line x1="0" y1="192" x2="256" y2="192"/>
    <line x1="64" y1="0" x2="64" y2="256"/>
    <line x1="128" y1="0" x2="128" y2="256"/>
    <line x1="192" y1="0" x2="192" y2="256"/>
  </g>
</svg>