<?xml version="1.0" encoding="UTF-8"?>
<svg width="256" height="256" viewBox="0 0 256 256" xmlns="http://www.w3.org/2000/svg">
  <defs>
    <!-- 渐变定义 -->
    <linearGradient id="blueGradient" x1="0%" y1="0%" x2="100%" y2="100%">
      <stop offset="0%" style="stop-color:#4A90E2;stop-opacity:1" />
      <stop offset="100%" style="stop-color:#2E5BBA;stop-opacity:1" />
    </linearGradient>
    
    <linearGradient id="purpleGradient" x1="0%" y1="0%" x2="100%" y2="100%">
      <stop offset="0%" style="stop-color:#8E44AD;stop-opacity:1" />
      <stop offset="100%" style="stop-color:#6C3483;stop-opacity:1" />
    </linearGradient>
    
    <linearGradient id="orangeGradient" x1="0%" y1="0%" x2="100%" y2="100%">
      <stop offset="0%" style="stop-color:#F39C12;stop-opacity:1" />
      <stop offset="100%" style="stop-color:#E67E22;stop-opacity:1" />
    </linearGradient>
    
    <!-- 阴影滤镜 -->
    <filter id="shadow" x="-50%" y="-50%" width="200%" height="200%">
      <feDropShadow dx="4" dy="6" stdDeviation="3" flood-color="#000000" flood-opacity="0.3"/>
    </filter>
    
    <!-- 内阴影滤镜 -->
    <filter id="innerShadow" x="-50%" y="-50%" width="200%" height="200%">
      <feOffset dx="0" dy="0"/>
      <feGaussianBlur stdDeviation="2" result="offset-blur"/>
      <feFlood flood-color="#000000" flood-opacity="0.2"/>
      <feComposite in2="offset-blur" operator="in"/>
    </filter>
  </defs>
  
  <!-- 背景圆形 -->
  <circle cx="128" cy="128" r="120" fill="url(#blueGradient)" filter="url(#shadow)" opacity="0.1"/>
  
  <!-- D字母 - 立体效果 -->
  <g transform="translate(30, 60)">
    <!-- D的背面（立体效果） -->
    <path d="M8 8 L8 120 L45 120 C70 120 85 105 85 80 L85 48 C85 23 70 8 45 8 Z" 
          fill="#1A4480" opacity="0.6"/>
    
    <!-- D的正面 -->
    <path d="M0 0 L0 112 L37 112 C62 112 77 97 77 72 L77 40 C77 15 62 0 37 0 Z" 
          fill="url(#blueGradient)" filter="url(#innerShadow)"/>
    
    <!-- D的内部空间 -->
    <path d="M20 20 L20 92 L37 92 C47 92 57 82 57 72 L57 40 C57 30 47 20 37 20 Z" 
          fill="#FFFFFF" opacity="0.9"/>
    
    <!-- D的立体连接线 -->
    <path d="M0 0 L8 8 M77 0 L85 8 M0 112 L8 120 M77 112 L85 120" 
          stroke="#1A4480" stroke-width="2" opacity="0.4"/>
  </g>
  
  <!-- I字母 - 立体效果 -->
  <g transform="translate(115, 60)">
    <!-- I的背面 -->
    <rect x="8" y="8" width="20" height="112" fill="#1A4480" opacity="0.6"/>
    
    <!-- I的正面 -->
    <rect x="0" y="0" width="20" height="112" fill="url(#purpleGradient)" filter="url(#innerShadow)"/>
    
    <!-- I的装饰线条 -->
    <rect x="4" y="20" width="12" height="4" fill="#FFFFFF" opacity="0.8"/>
    <rect x="4" y="40" width="12" height="4" fill="#FFFFFF" opacity="0.6"/>
    <rect x="4" y="60" width="12" height="4" fill="#FFFFFF" opacity="0.4"/>
    <rect x="4" y="80" width="12" height="4" fill="#FFFFFF" opacity="0.2"/>
    
    <!-- I的立体连接线 -->
    <path d="M0 0 L8 8 M20 0 L28 8 M0 112 L8 120 M20 112 L28 120" 
          stroke="#1A4480" stroke-width="2" opacity="0.4"/>
  </g>
  
  <!-- P字母 - 立体效果 -->
  <g transform="translate(150, 60)">
    <!-- P的背面 -->
    <path d="M8 8 L8 120 L28 120 L28 75 L45 75 C70 75 85 60 85 35 L85 25 C85 10 70 8 45 8 Z" 
          fill="#1A4480" opacity="0.6"/>
    
    <!-- P的正面 -->
    <path d="M0 0 L0 112 L20 112 L20 67 L37 67 C62 67 77 52 77 27 L77 17 C77 2 62 0 37 0 Z" 
          fill="url(#orangeGradient)" filter="url(#innerShadow)"/>
    
    <!-- P的内部空间 -->
    <rect x="20" y="20" width="37" height="27" fill="#FFFFFF" opacity="0.9"/>
    
    <!-- P的立体连接线 -->
    <path d="M0 0 L8 8 M77 0 L85 8 M0 112 L8 120 M20 112 L28 120 M20 67 L28 75 M77 67 L85 75" 
          stroke="#1A4480" stroke-width="2" opacity="0.4"/>
  </g>
  
  <!-- 底部装饰线 -->
  <rect x="40" y="190" width="176" height="3" fill="url(#blueGradient)" opacity="0.6"/>
  <rect x="50" y="200" width="156" height="2" fill="url(#purpleGradient)" opacity="0.4"/>
  
  <!-- 像素化装饰元素 -->
  <g opacity="0.3">
    <rect x="220" y="40" width="8" height="8" fill="#4A90E2"/>
    <rect x="230" y="50" width="8" height="8" fill="#8E44AD"/>
    <rect x="240" y="60" width="8" height="8" fill="#F39C12"/>
    <rect x="20" y="200" width="6" height="6" fill="#4A90E2"/>
    <rect x="30" y="210" width="6" height="6" fill="#8E44AD"/>
    <rect x="40" y="220" width="6" height="6" fill="#F39C12"/>
  </g>
  
  <!-- 数字化网格背景 -->
  <g opacity="0.1" stroke="#4A90E2" stroke-width="0.5" fill="none">
    <line x1="0" y1="64" x2="256" y2="64"/>
    <line x1="0" y1="128" x2="256" y2="128"/>
    <line x1="0" y1="192" x2="256" y2="192"/>
    <line x1="64" y1="0" x2="64" y2="256"/>
    <line x1="128" y1="0" x2="128" y2="256"/>
    <line x1="192" y1="0" x2="192" y2="256"/>
  </g>
</svg>